<svg width="31" height="30" viewBox="0 0 31 30" fill="none" xmlns="http://www.w3.org/2000/svg">
<path d="M17.0752 13.125H19.5752V14.375H17.0752V13.125Z" fill="#9ECACD"/>
<path d="M25.5 5H5.5C4.83696 5 4.20107 5.26339 3.73223 5.73223C3.26339 6.20107 3 6.83696 3 7.5V22.5C3 23.163 3.26339 23.7989 3.73223 24.2678C4.20107 24.7366 4.83696 25 5.5 25H25.5C26.163 25 26.7989 24.7366 27.2678 24.2678C27.7366 23.7989 28 23.163 28 22.5V7.5C28 6.83696 27.7366 6.20107 27.2678 5.73223C26.7989 5.26339 26.163 5 25.5 5ZM11 18.75L10.5 17.2125H8.075L7.525 18.75H5.5L8.25 11.25H10.275L13 18.75H11ZM21.45 14.375C21.4551 14.6226 21.4101 14.8687 21.3177 15.0985C21.2253 15.3283 21.0873 15.5371 20.9122 15.7122C20.7371 15.8873 20.5283 16.0253 20.2985 16.1177C20.0687 16.2101 19.8226 16.2551 19.575 16.25H17.075V18.75H15.2V11.25H19.575C19.8226 11.2449 20.0687 11.2899 20.2985 11.3823C20.5283 11.4747 20.7371 11.6127 20.9122 11.7878C21.0873 11.9629 21.2253 12.1717 21.3177 12.4015C21.4101 12.6313 21.4551 12.8774 21.45 13.125V14.375ZM25.5 18.75H23.625V11.25H25.5V18.75Z" fill="#9ECACD"/>
<path d="M8.5376 15.9625H9.9876L9.2626 13.975L8.5376 15.9625Z" fill="#9ECACD"/>
</svg>
