<svg width="30" height="30" viewBox="0 0 30 30" fill="none" xmlns="http://www.w3.org/2000/svg">
<path d="M18 17.5C19.215 16.36 20 14.545 20 12.5C20 9.04875 17.7625 6.25 15 6.25C12.2375 6.25 10 9.04875 10 12.5C10 14.545 10.785 16.36 12 17.5M10.1338 17.5H19.8662C20.5987 17.5 21.25 18.0175 21.25 18.75C21.25 20.6375 20.4125 22.6125 19.0887 23.9075C18.4325 24.55 17.7938 25.215 18.5888 26.0862C18.7075 26.2162 18.8463 26.33 18.9625 26.465C19.3725 26.935 18.9325 27.5 18.4037 27.5H11.5963C11.0675 27.5 10.6275 26.935 11.0375 26.465C11.1537 26.33 11.2925 26.2162 11.4125 26.0862C12.2063 25.215 11.5663 24.5487 10.9113 23.9075C9.58625 22.6125 8.75 20.6375 8.75 18.75C8.75 18.0175 9.40125 17.5 10.1338 17.5Z" stroke="#9ECACD" stroke-width="1.875" stroke-linecap="round" stroke-linejoin="round"/>
<path d="M22.8625 15C23.605 15 24.2288 14.4625 24.3025 13.7575L24.7613 9.3775C25.0288 6.83625 25.1613 5.565 24.6663 4.605C23.4325 2.215 20.5413 2.51125 18.2425 2.51125H11.7575C9.4575 2.51125 6.5675 2.215 5.33375 4.605C4.83875 5.565 4.97125 6.83625 5.2375 9.3775L5.6975 13.7575C5.7725 14.4625 6.395 15 7.13875 15" stroke="#9ECACD" stroke-width="1.875" stroke-linecap="round" stroke-linejoin="round"/>
</svg>
