<svg width="31" height="30" viewBox="0 0 31 30" fill="none" xmlns="http://www.w3.org/2000/svg">
<path d="M15.5 1.875C13.4375 1.875 11.75 3.5625 11.75 5.625C11.7536 6.58869 12.1318 7.51321 12.8047 8.20312C11.0684 9.16219 9.875 11.0119 9.875 13.125V18.1931L10.1384 18.4866L11.75 20.0972V28.125H13.625V19.3069L13.3616 19.0134L11.75 17.4028V13.125C11.75 11.0447 13.4197 9.375 15.5 9.375C17.5803 9.375 19.25 11.0447 19.25 13.125V17.4028L17.6384 19.0134L17.375 19.3069V28.125H19.25V20.0972L20.8616 18.4866L21.125 18.1931V13.125C21.125 11.0119 19.9316 9.16219 18.1953 8.20312C18.8683 7.51332 19.2466 6.58873 19.25 5.625C19.25 3.5625 17.5625 1.875 15.5 1.875ZM15.5 3.75C16.5472 3.75 17.375 4.57781 17.375 5.625C17.375 6.67219 16.5472 7.5 15.5 7.5C14.4528 7.5 13.625 6.67219 13.625 5.625C13.625 4.57781 14.4528 3.75 15.5 3.75Z" fill="#9ECACD"/>
</svg>
