<svg width="30" height="30" viewBox="0 0 30 30" fill="none" xmlns="http://www.w3.org/2000/svg">
<path d="M4.19999 7.96875H4.74375H26.1937H26.7399L26.6571 8.50861L26.3824 10.2983L26.3808 10.3087L26.3794 10.3158C26.3307 10.5961 26.0895 10.7812 25.8328 10.7812H5.10588H5.10468V10.3125C5.08179 10.3127 5.05962 10.3045 5.04235 10.2895C5.02508 10.2745 5.01391 10.2536 5.01093 10.2309L4.19999 7.96875ZM4.19999 7.96875L4.28011 8.50657L4.54695 10.2976L4.19999 7.96875ZM3.61926 10.4375L3.29359 8.25087L3.29292 8.24214L3.29116 8.22906C3.27119 8.07986 3.2833 7.92812 3.32668 7.78398C3.37006 7.63984 3.44372 7.50662 3.54272 7.39323C3.64172 7.27985 3.76378 7.1889 3.90075 7.12647C4.03758 7.06411 4.18613 7.03165 4.3365 7.03125H26.601C26.7514 7.03168 26.9001 7.06417 27.037 7.12654L27.2313 6.69996L27.037 7.12654C27.1741 7.18899 27.2963 7.27996 27.3955 7.39339C27.4946 7.50681 27.5685 7.64007 27.612 7.78429C27.6538 7.92259 27.6668 8.06791 27.6504 8.21131L27.6499 8.21332L27.6476 8.22882L27.3101 10.4357L27.3047 10.4709V10.4714C27.2642 10.7083 27.1676 10.9321 27.0226 11.1242C26.8712 11.3248 26.6718 11.4843 26.4428 11.588L26.2054 11.6956L26.1715 11.954L24.1802 27.1303L24.1762 27.1606V27.1625C24.0595 27.9722 23.3783 28.5938 22.5609 28.5938H8.36812C7.54857 28.5938 6.86878 27.9719 6.75375 27.1638V27.1605L6.74974 27.1301L6.47037 25.0067L6.42659 24.6739L6.09748 24.6082C4.94098 24.377 4.16733 23.8235 3.7786 22.9418L3.77841 22.9414C3.32001 21.9045 3.47987 20.568 3.88367 19.1948C4.19286 18.1491 4.66368 17.0164 5.1974 15.8755L5.25536 15.7516L5.23759 15.616L4.75759 11.9522L4.72368 11.6934L4.48577 11.5859C4.25676 11.4825 4.05741 11.3232 3.90602 11.1226L3.54428 11.3957L3.90602 11.1226C3.75463 10.922 3.65605 10.6867 3.61934 10.4381L3.61926 10.4375ZM5.73537 19.407L4.82244 19.3308L5.06437 22.3734L4.63532 22.5622C4.63535 22.5623 4.63539 22.5624 4.63542 22.5625C4.78167 22.8947 5.04753 23.2237 5.53888 23.4562L6.31625 23.824L6.20412 22.9714L5.73537 19.407ZM7.8984 24.7277L7.38128 24.7443L7.44868 25.2573L7.67961 27.0148C7.67974 27.0158 7.67986 27.0169 7.67999 27.0179C7.7288 27.4105 8.05066 27.6562 8.36812 27.6562H22.5619C22.8789 27.6562 23.1952 27.4124 23.2478 27.0277L23.2487 27.0222L23.2498 27.0141L25.1876 12.2485L25.2571 11.7188H24.7228H18.8709L18.8041 12.6515C18.8787 12.6622 18.9496 12.6908 19.0108 12.7347C19.072 12.7787 19.1217 12.8367 19.1557 12.904C19.1897 12.9712 19.207 13.0457 19.2061 13.121C19.2052 13.1962 19.1862 13.2701 19.1507 13.3365C18.9109 13.7834 18.6769 14.2253 18.4471 14.6592L18.4042 14.7403L18.4041 14.7404C16.9666 17.4562 15.7028 19.8416 14.2088 21.5773L14.2087 21.5774C13.322 22.6082 12.3388 23.4341 11.1662 23.9811L11.1657 23.9814C10.2004 24.4332 9.1255 24.6884 7.8984 24.7277ZM18.6699 12.6516L18.6037 11.7188H6.20625H5.67192L5.74149 12.2485L7.20399 23.386L7.25811 23.7982L7.67377 23.7937C8.87289 23.7809 9.88361 23.546 10.7686 23.1329L10.769 23.1327C11.7915 22.6543 12.6747 21.9233 13.4981 20.9664L13.4982 20.9663C14.915 19.3195 16.1072 17.0706 17.5265 14.3935L17.5582 14.3336L17.5584 14.3333C17.8048 13.8676 18.0594 13.3874 18.3233 12.8943L18.3234 12.8941C18.358 12.8293 18.4075 12.7736 18.4677 12.7314L18.415 12.6562L18.4677 12.7314C18.5279 12.6893 18.5972 12.6619 18.6699 12.6516Z" stroke="#A2DAC2" stroke-width="0.9375"/>
</svg>
