<svg width="30" height="30" viewBox="0 0 30 30" fill="none" xmlns="http://www.w3.org/2000/svg">
<path d="M15 7.5C14.6685 7.5 14.3505 7.6317 14.1161 7.86612C13.8817 8.10054 13.75 8.41848 13.75 8.75V21.25C13.75 21.5815 13.8817 21.8995 14.1161 22.1339C14.3505 22.3683 14.6685 22.5 15 22.5C15.3315 22.5 15.6495 22.3683 15.8839 22.1339C16.1183 21.8995 16.25 21.5815 16.25 21.25V8.75C16.25 8.41848 16.1183 8.10054 15.8839 7.86612C15.6495 7.6317 15.3315 7.5 15 7.5ZM8.75 15C8.41848 15 8.10054 15.1317 7.86612 15.3661C7.6317 15.6005 7.5 15.9185 7.5 16.25V21.25C7.5 21.5815 7.6317 21.8995 7.86612 22.1339C8.10054 22.3683 8.41848 22.5 8.75 22.5C9.08152 22.5 9.39946 22.3683 9.63388 22.1339C9.8683 21.8995 10 21.5815 10 21.25V16.25C10 15.9185 9.8683 15.6005 9.63388 15.3661C9.39946 15.1317 9.08152 15 8.75 15ZM21.25 12.5C20.9185 12.5 20.6005 12.6317 20.3661 12.8661C20.1317 13.1005 20 13.4185 20 13.75V21.25C20 21.5815 20.1317 21.8995 20.3661 22.1339C20.6005 22.3683 20.9185 22.5 21.25 22.5C21.5815 22.5 21.8995 22.3683 22.1339 22.1339C22.3683 21.8995 22.5 21.5815 22.5 21.25V13.75C22.5 13.4185 22.3683 13.1005 22.1339 12.8661C21.8995 12.6317 21.5815 12.5 21.25 12.5ZM23.75 2.5H6.25C5.25544 2.5 4.30161 2.89509 3.59835 3.59835C2.89509 4.30161 2.5 5.25544 2.5 6.25V23.75C2.5 24.7446 2.89509 25.6984 3.59835 26.4017C4.30161 27.1049 5.25544 27.5 6.25 27.5H23.75C24.7446 27.5 25.6984 27.1049 26.4017 26.4017C27.1049 25.6984 27.5 24.7446 27.5 23.75V6.25C27.5 5.25544 27.1049 4.30161 26.4017 3.59835C25.6984 2.89509 24.7446 2.5 23.75 2.5ZM25 23.75C25 24.0815 24.8683 24.3995 24.6339 24.6339C24.3995 24.8683 24.0815 25 23.75 25H6.25C5.91848 25 5.60054 24.8683 5.36612 24.6339C5.1317 24.3995 5 24.0815 5 23.75V6.25C5 5.91848 5.1317 5.60054 5.36612 5.36612C5.60054 5.1317 5.91848 5 6.25 5H23.75C24.0815 5 24.3995 5.1317 24.6339 5.36612C24.8683 5.60054 25 5.91848 25 6.25V23.75Z" fill="black"/>
</svg>
