<svg width="31" height="30" viewBox="0 0 31 30" fill="none" xmlns="http://www.w3.org/2000/svg">
<path d="M15.5 1.875C13.4375 1.875 11.75 3.5625 11.75 5.625C11.75 6.68344 12.2075 7.63594 12.9219 8.32031C12.7005 8.47625 12.4946 8.65299 12.3069 8.84812C11.5194 9.6825 11.0281 10.7963 10.8125 12.0113H10.8416L8.96655 21.3862L8.73218 22.5H12.6875V28.125H14.5625V22.5H16.4375V28.125H18.3125V22.5H22.2678L22.0334 21.3862L20.1584 12.0113C19.9428 10.8544 19.4741 9.75187 18.6931 8.90625C18.4981 8.69038 18.2824 8.49413 18.0491 8.32031C18.7737 7.63594 19.25 6.69094 19.25 5.625C19.25 3.5625 17.5625 1.875 15.5 1.875ZM15.5 3.75C16.5472 3.75 17.375 4.57781 17.375 5.625C17.375 6.67219 16.5472 7.5 15.5 7.5C14.4528 7.5 13.625 6.67219 13.625 5.625C13.625 4.57781 14.4528 3.75 15.5 3.75ZM15.5 9.375C16.2762 9.375 16.8331 9.67125 17.3169 10.1953C17.7997 10.7194 18.1803 11.4956 18.3416 12.3637L19.9822 20.625H11.0187L12.6594 12.3628H12.6875C12.8525 11.4253 13.2116 10.6378 13.6841 10.1372C14.1556 9.63469 14.7059 9.375 15.5 9.375Z" fill="#9ECACD"/>
</svg>
