<svg width="30" height="30" viewBox="0 0 30 30" fill="none" xmlns="http://www.w3.org/2000/svg">
<g clip-path="url(#clip0_204_276)">
<path d="M10.4508 0.98673C7.45332 2.02658 4.86831 4.00024 3.07545 6.61783C1.28259 9.23541 0.376388 12.3589 0.489945 15.5296C0.603502 18.7003 1.73083 21.751 3.70635 24.2336C5.68187 26.7162 8.40145 28.4999 11.4656 29.3227C13.9498 29.9637 16.5525 29.9918 19.05 29.4047C21.3125 28.8965 23.4042 27.8095 25.1203 26.25C26.9064 24.5774 28.2029 22.4496 28.8703 20.0953C29.5958 17.5352 29.7248 14.8428 29.2477 12.225H15.2977V18.0117H23.3766C23.2151 18.9347 22.8691 19.8155 22.3593 20.6017C21.8494 21.3878 21.1862 22.0629 20.4094 22.5867C19.4228 23.2393 18.3108 23.6784 17.1445 23.8758C15.9749 24.0933 14.7751 24.0933 13.6055 23.8758C12.42 23.6307 11.2985 23.1414 10.3125 22.4391C8.72848 21.3178 7.53909 19.7248 6.91406 17.8875C6.27847 16.0158 6.27847 13.9866 6.91406 12.1149C7.35897 10.8029 8.09446 9.6083 9.06563 8.62032C10.177 7.46895 11.5841 6.64594 13.1324 6.2416C14.6807 5.83725 16.3105 5.86719 17.843 6.32814C19.0401 6.69562 20.1348 7.33768 21.0398 8.20314C21.9508 7.29689 22.8602 6.38829 23.768 5.47735C24.2367 4.98751 24.7477 4.5211 25.2094 4.01954C23.8279 2.73394 22.2063 1.73358 20.4375 1.07579C17.2165 -0.093763 13.6921 -0.125194 10.4508 0.98673Z" fill="white"/>
<path d="M10.4508 0.986709C13.6919 -0.12597 17.2162 -0.0953667 20.4375 1.07343C22.2066 1.73569 23.8275 2.74086 25.207 4.03124C24.7383 4.5328 24.2438 5.00155 23.7656 5.48905C22.8563 6.39687 21.9477 7.30155 21.0398 8.20312C20.1348 7.33766 19.0401 6.6956 17.843 6.32811C16.311 5.86555 14.6813 5.83388 13.1326 6.23657C11.5838 6.63927 10.1759 7.46076 9.06329 8.61093C8.09212 9.5989 7.35663 10.7935 6.91172 12.1055L2.05313 8.34374C3.79221 4.89506 6.80332 2.25708 10.4508 0.986709Z" fill="#E33629"/>
<path d="M0.764068 12.0703C1.02521 10.7761 1.45876 9.52272 2.05313 8.34375L6.91172 12.1148C6.27613 13.9866 6.27613 16.0158 6.91172 17.8875C5.29297 19.1375 3.67344 20.3938 2.05313 21.6563C0.565202 18.6945 0.11141 15.3199 0.764068 12.0703Z" fill="#F8BD00"/>
<path d="M15.2976 12.2227H29.2476C29.7248 14.8405 29.5957 17.5328 28.8703 20.093C28.2029 22.4472 26.9064 24.575 25.1203 26.2477C23.5523 25.0242 21.9773 23.8102 20.4094 22.5867C21.1867 22.0624 21.8502 21.3865 22.3601 20.5995C22.8699 19.8126 23.2157 18.9308 23.3765 18.007H15.2976C15.2953 16.0805 15.2976 14.1516 15.2976 12.2227Z" fill="#587DBD"/>
<path d="M2.05078 21.6562C3.67109 20.4062 5.29062 19.15 6.90937 17.8875C7.53564 19.7255 8.72673 21.3185 10.3125 22.4391C11.3016 23.1381 12.4255 23.6234 13.6125 23.8641C14.7822 24.0815 15.9819 24.0815 17.1516 23.8641C18.3178 23.6666 19.4299 23.2276 20.4164 22.575C21.9844 23.7984 23.5594 25.0125 25.1273 26.2359C23.4115 27.7962 21.3197 28.8841 19.057 29.393C16.5596 29.9801 13.9569 29.9519 11.4727 29.3109C9.50789 28.7863 7.67268 27.8615 6.08203 26.5945C4.39842 25.2579 3.02333 23.5734 2.05078 21.6562Z" fill="#319F43"/>
</g>
<defs>
<clipPath id="clip0_204_276">
<rect width="30" height="30" fill="white"/>
</clipPath>
</defs>
</svg>
