<svg width="30" height="30" viewBox="0 0 30 30" fill="none" xmlns="http://www.w3.org/2000/svg">
<g clip-path="url(#clip0_204_107)">
<path d="M12.5 6.66666H20V8.33332H12.5V6.66666Z" fill="black"/>
<path d="M12.5 10H20V11.6667H12.5V10Z" fill="black"/>
<path d="M12.5 13.3333H20V15H12.5V13.3333Z" fill="black"/>
<path d="M12.5 16.6667H20V18.3333H12.5V16.6667Z" fill="black"/>
<path d="M12.5 20H20V21.6667H12.5V20Z" fill="black"/>
<path d="M9.16667 6.66666H10.8333V8.33332H9.16667V6.66666Z" fill="black"/>
<path d="M9.16667 10H10.8333V11.6667H9.16667V10Z" fill="black"/>
<path d="M9.16667 13.3333H10.8333V15H9.16667V13.3333Z" fill="black"/>
<path d="M9.16667 16.6667H10.8333V18.3333H9.16667V16.6667Z" fill="black"/>
<path d="M9.16667 20H10.8333V21.6667H9.16667V20Z" fill="black"/>
<path d="M23.3333 1.66666H6.66667C6.22464 1.66666 5.80072 1.84225 5.48816 2.15481C5.17559 2.46737 5 2.8913 5 3.33332V26.6667C5 27.1087 5.17559 27.5326 5.48816 27.8452C5.80072 28.1577 6.22464 28.3333 6.66667 28.3333H23.3333C23.7754 28.3333 24.1993 28.1577 24.5118 27.8452C24.8244 27.5326 25 27.1087 25 26.6667V3.33332C25 2.8913 24.8244 2.46737 24.5118 2.15481C24.1993 1.84225 23.7754 1.66666 23.3333 1.66666ZM23.3333 26.6667H6.66667V3.33332H23.3333V26.6667Z" fill="black"/>
</g>
<defs>
<clipPath id="clip0_204_107">
<rect width="30" height="30" fill="white"/>
</clipPath>
</defs>
</svg>
