<svg width="30" height="30" viewBox="0 0 30 30" fill="none" xmlns="http://www.w3.org/2000/svg">
<path d="M25.5163 4.875L5.16501 12.7825L11.2013 15.29C12.9657 16.0219 14.3674 17.4241 15.0988 19.1887L17.6063 25.2237L25.5163 4.875ZM27.825 5.7275L19.915 26.0787C19.415 27.3662 17.9763 28.025 16.7013 27.5537C16.3906 27.439 16.107 27.2613 15.8682 27.0318C15.6294 26.8023 15.4407 26.5259 15.3138 26.22L12.805 20.1825C12.317 19.0066 11.3823 18.0725 10.2063 17.585L4.17126 15.0775C2.91626 14.5562 2.34376 13.1075 2.89251 11.84C3.02732 11.5302 3.22207 11.2501 3.46556 11.0158C3.70905 10.7815 3.99646 10.5977 4.31126 10.475L24.6625 2.565C25.1046 2.38732 25.5892 2.34346 26.056 2.43889C26.5229 2.53431 26.9513 2.76481 27.2883 3.10173C27.6252 3.43865 27.8557 3.86715 27.9511 4.33398C28.0465 4.80081 28.0027 5.28538 27.825 5.7275Z" fill="#9ECACD"/>
</svg>
