<svg width="30" height="30" viewBox="0 0 30 30" fill="none" xmlns="http://www.w3.org/2000/svg">
<path d="M9.75 11.25C10.1932 11.25 10.6321 11.1627 11.0416 10.9931C11.451 10.8235 11.8231 10.5749 12.1365 10.2615C12.4499 9.94809 12.6985 9.57603 12.8681 9.16656C13.0377 8.75708 13.125 8.31821 13.125 7.875C13.125 7.43179 13.0377 6.99292 12.8681 6.58344C12.6985 6.17397 12.4499 5.80191 12.1365 5.48851C11.8231 5.17512 11.451 4.92652 11.0416 4.75691C10.6321 4.5873 10.1932 4.5 9.75 4.5C8.85489 4.5 7.99645 4.85558 7.36351 5.48851C6.73058 6.12145 6.375 6.97989 6.375 7.875C6.375 8.77011 6.73058 9.62855 7.36351 10.2615C7.99645 10.8944 8.85489 11.25 9.75 11.25ZM9.75 9.75C9.25272 9.75 8.77581 9.55246 8.42417 9.20083C8.07254 8.8492 7.875 8.37228 7.875 7.875C7.875 7.37772 8.07254 6.90081 8.42417 6.54918C8.77581 6.19754 9.25272 6 9.75 6C10.2473 6 10.7242 6.19754 11.0758 6.54918C11.4275 6.90081 11.625 7.37772 11.625 7.875C11.625 8.37228 11.4275 8.8492 11.0758 9.20083C10.7242 9.55246 10.2473 9.75 9.75 9.75ZM4.5 13.5C4.5 13.1022 4.65804 12.7206 4.93934 12.4393C5.22064 12.158 5.60218 12 6 12H13.5C13.8978 12 14.2794 12.158 14.5607 12.4393C14.842 12.7206 15 13.1022 15 13.5V20.25C15 20.9394 14.8642 21.6221 14.6004 22.2591C14.3365 22.896 13.9498 23.4748 13.4623 23.9623C12.9748 24.4498 12.396 24.8365 11.7591 25.1004C11.1221 25.3642 10.4394 25.5 9.75 25.5C9.06056 25.5 8.37787 25.3642 7.74091 25.1004C7.10395 24.8365 6.5252 24.4498 6.03769 23.9623C5.55018 23.4748 5.16347 22.896 4.89963 22.2591C4.6358 21.6221 4.5 20.9394 4.5 20.25V13.5ZM6 13.5V20.25C6 21.2446 6.39509 22.1984 7.09835 22.9016C7.80161 23.6049 8.75544 24 9.75 24C10.7446 24 11.6984 23.6049 12.4017 22.9016C13.1049 22.1984 13.5 21.2446 13.5 20.25V13.5H6ZM14.439 9.2145C14.3075 9.67679 14.1072 10.1167 13.845 10.5195C14.4645 10.5915 15.0255 10.8495 15.471 11.2395C15.562 11.2455 15.655 11.249 15.75 11.25C16.2818 11.25 16.806 11.1243 17.28 10.8832C17.7539 10.6421 18.1642 10.2924 18.4774 9.86262C18.7906 9.43286 18.9977 8.93517 19.0821 8.41013C19.1664 7.8851 19.1254 7.34756 18.9626 6.84135C18.7997 6.33514 18.5195 5.87458 18.1449 5.4972C17.7702 5.11982 17.3117 4.83631 16.8067 4.66978C16.3017 4.50324 15.7645 4.4584 15.2388 4.5389C14.7132 4.6194 14.214 4.82296 13.782 5.133C14.07 5.5575 14.2935 6.03 14.439 6.5355C14.7028 6.27738 15.037 6.10287 15.3995 6.03384C15.7621 5.9648 16.137 6.00432 16.4772 6.14743C16.8175 6.29054 17.1079 6.53087 17.3121 6.83832C17.5163 7.14577 17.6252 7.50666 17.6252 7.87575C17.6252 8.24484 17.5163 8.60573 17.3121 8.91318C17.1079 9.22063 16.8175 9.46097 16.4772 9.60407C16.137 9.74718 15.7621 9.7867 15.3995 9.71766C15.037 9.64863 14.7028 9.47262 14.439 9.2145ZM14.2485 25.284C15.0324 25.518 15.8602 25.5655 16.6657 25.4228C17.4713 25.2801 18.2323 24.9512 18.8882 24.4621C19.544 23.9731 20.0765 23.3376 20.4432 22.6063C20.8098 21.875 21.0005 21.0681 21 20.25V13.5C21 13.1022 20.842 12.7206 20.5607 12.4393C20.2794 12.158 19.8978 12 19.5 12H16.0995C16.3545 12.441 16.5015 12.954 16.5015 13.5H19.5015V20.25C19.5016 20.7742 19.3918 21.2925 19.1793 21.7716C18.9667 22.2507 18.6561 22.68 18.2674 23.0316C17.8787 23.3833 17.4206 23.6495 16.9227 23.8132C16.4247 23.9769 15.898 24.0344 15.3765 23.982C15.0555 24.464 14.6805 24.8975 14.2515 25.2825M20.442 9.2145C20.3105 9.67679 20.1102 10.1167 19.848 10.5195C20.4675 10.5915 21.0285 10.8495 21.474 11.2395C21.565 11.2455 21.658 11.249 21.753 11.25C22.2848 11.25 22.809 11.1243 23.283 10.8832C23.7569 10.6421 24.1672 10.2924 24.4804 9.86262C24.7936 9.43286 25.0007 8.93517 25.0851 8.41013C25.1694 7.8851 25.1284 7.34756 24.9656 6.84135C24.8027 6.33514 24.5225 5.87458 24.1479 5.4972C23.7732 5.11982 23.3147 4.83631 22.8097 4.66978C22.3047 4.50324 21.7675 4.4584 21.2418 4.5389C20.7162 4.6194 20.217 4.82296 19.785 5.133C20.073 5.5575 20.2965 6.03 20.442 6.5355C20.7058 6.27738 21.04 6.10287 21.4025 6.03384C21.7651 5.9648 22.14 6.00432 22.4802 6.14743C22.8205 6.29054 23.1109 6.53087 23.3151 6.83832C23.5193 7.14577 23.6282 7.50666 23.6282 7.87575C23.6282 8.24484 23.5193 8.60573 23.3151 8.91318C23.1109 9.22063 22.8205 9.46097 22.4802 9.60407C22.14 9.74718 21.7651 9.7867 21.4025 9.71766C21.04 9.64863 20.7058 9.47262 20.442 9.2145ZM20.2515 25.284C20.7295 25.427 21.2295 25.4995 21.7515 25.5015C23.1439 25.5015 24.4792 24.9484 25.4638 23.9638C26.4484 22.9792 27.0015 21.6439 27.0015 20.2515V13.5C27.0015 13.1022 26.8435 12.7206 26.5622 12.4393C26.2809 12.158 25.8993 12 25.5015 12H22.101C22.356 12.441 22.503 12.954 22.503 13.5H25.503V20.25C25.5031 20.7742 25.3933 21.2925 25.1808 21.7716C24.9682 22.2507 24.6576 22.68 24.2689 23.0316C23.8802 23.3833 23.4221 23.6495 22.9242 23.8132C22.4262 23.9769 21.8995 24.0344 21.378 23.982C21.057 24.464 20.682 24.8975 20.253 25.2825" fill="#A2DAC2"/>
</svg>
