<svg width="30" height="30" viewBox="0 0 30 30" fill="none" xmlns="http://www.w3.org/2000/svg">
<g clip-path="url(#clip0_293_444)">
<path fill-rule="evenodd" clip-rule="evenodd" d="M10.215 19.7862C15.0212 24.5925 19.475 25.1187 20.7825 25.1675C22.3625 25.225 23.975 23.935 24.6725 22.6137C23.56 21.3087 22.1112 20.2962 20.525 19.1987C19.5888 20.1337 18.435 21.8712 16.8988 21.2487C16.025 20.8975 13.8675 19.9037 11.9825 18.0175C10.0975 16.1312 9.10375 13.975 8.75 13.1025C8.1275 11.5637 9.87 10.4075 10.8063 9.47124C9.70875 7.85875 8.71375 6.37249 7.41125 5.31624C6.07125 6.01624 4.77375 7.61624 4.8325 9.21749C4.88125 10.525 5.4075 14.9787 10.215 19.7862ZM20.69 27.6662C18.89 27.6 13.7887 26.895 8.44625 21.5537C3.105 16.2112 2.40125 11.1112 2.33375 9.30999C2.23375 6.56499 4.33625 3.89874 6.765 2.85749C7.05747 2.7312 7.37775 2.68312 7.69441 2.71796C8.01107 2.75281 8.31324 2.86938 8.57125 3.05624C10.5813 4.52249 11.9675 6.74374 13.1588 8.48375C13.4066 8.84556 13.5201 9.28262 13.4797 9.7193C13.4393 10.156 13.2475 10.5648 12.9375 10.875L11.2425 12.5712C11.6363 13.44 12.4375 14.9375 13.75 16.25C15.0625 17.5625 16.56 18.3637 17.43 18.7575L19.1237 17.0625C19.4348 16.7512 19.8454 16.5592 20.2837 16.5201C20.722 16.481 21.1601 16.5974 21.5212 16.8487C23.2962 18.0787 25.3813 19.445 26.9012 21.3912C27.1033 21.6511 27.2318 21.9605 27.2734 22.287C27.3149 22.6136 27.268 22.9453 27.1375 23.2475C26.0912 25.6887 23.4438 27.7675 20.69 27.6662Z" fill="#9ECACD"/>
</g>
<defs>
<clipPath id="clip0_293_444">
<rect width="30" height="30" fill="white"/>
</clipPath>
</defs>
</svg>
