<svg width="35" height="34" viewBox="0 0 35 34" fill="none" xmlns="http://www.w3.org/2000/svg">
<path d="M10.5483 24.0833V24.0975M10.5483 9.91667V9.93084M24.7149 9.91667V9.93084M24.7149 19.8333H20.4649V24.0833M28.9649 19.8333V19.8475M20.4649 28.3333H24.7149M24.7149 24.0833H28.9649V28.3333M6.29828 7.08334C6.29828 6.70762 6.44753 6.34728 6.71321 6.0816C6.97889 5.81593 7.33922 5.66667 7.71495 5.66667H13.3816C13.7573 5.66667 14.1177 5.81593 14.3833 6.0816C14.649 6.34728 14.7983 6.70762 14.7983 7.08334V12.75C14.7983 13.1257 14.649 13.4861 14.3833 13.7517C14.1177 14.0174 13.7573 14.1667 13.3816 14.1667H7.71495C7.33922 14.1667 6.97889 14.0174 6.71321 13.7517C6.44753 13.4861 6.29828 13.1257 6.29828 12.75V7.08334ZM20.4649 7.08334C20.4649 6.70762 20.6142 6.34728 20.8799 6.0816C21.1456 5.81593 21.5059 5.66667 21.8816 5.66667H27.5483C27.924 5.66667 28.2843 5.81593 28.55 6.0816C28.8157 6.34728 28.9649 6.70762 28.9649 7.08334V12.75C28.9649 13.1257 28.8157 13.4861 28.55 13.7517C28.2843 14.0174 27.924 14.1667 27.5483 14.1667H21.8816C21.5059 14.1667 21.1456 14.0174 20.8799 13.7517C20.6142 13.4861 20.4649 13.1257 20.4649 12.75V7.08334ZM6.29828 21.25C6.29828 20.8743 6.44753 20.5139 6.71321 20.2483C6.97889 19.9826 7.33922 19.8333 7.71495 19.8333H13.3816C13.7573 19.8333 14.1177 19.9826 14.3833 20.2483C14.649 20.5139 14.7983 20.8743 14.7983 21.25V26.9167C14.7983 27.2924 14.649 27.6527 14.3833 27.9184C14.1177 28.1841 13.7573 28.3333 13.3816 28.3333H7.71495C7.33922 28.3333 6.97889 28.1841 6.71321 27.9184C6.44753 27.6527 6.29828 27.2924 6.29828 26.9167V21.25Z" stroke="white" stroke-width="3" stroke-linecap="round" stroke-linejoin="round"/>
</svg>
