<svg width="21" height="20" viewBox="0 0 21 20" fill="none" xmlns="http://www.w3.org/2000/svg">
<path d="M0.631592 3.33333C0.631592 2.44928 0.894984 1.60143 1.36382 0.976311C1.83267 0.351189 2.46855 0 3.13159 0H18.1316C18.7946 0 19.4305 0.351189 19.8994 0.976311C20.3682 1.60143 20.6316 2.44928 20.6316 3.33333V16.6667C20.6316 17.5507 20.3682 18.3986 19.8994 19.0237C19.4305 19.6488 18.7946 20 18.1316 20H3.13159C2.46855 20 1.83267 19.6488 1.36382 19.0237C0.894984 18.3986 0.631592 17.5507 0.631592 16.6667V3.33333ZM3.13159 1.66667C2.80007 1.66667 2.48213 1.84226 2.24771 2.15482C2.01329 2.46738 1.88159 2.89131 1.88159 3.33333V16.6667C1.88159 17.1087 2.01329 17.5326 2.24771 17.8452C2.48213 18.1577 2.80007 18.3333 3.13159 18.3333H10.0066V1.66667H3.13159ZM18.1316 18.3333C18.4631 18.3333 18.7811 18.1577 19.0155 17.8452C19.2499 17.5326 19.3816 17.1087 19.3816 16.6667V3.33333C19.3816 2.89131 19.2499 2.46738 19.0155 2.15482C18.7811 1.84226 18.4631 1.66667 18.1316 1.66667H11.2566V18.3333H18.1316ZM13.1316 3.33333C12.9658 3.33333 12.8069 3.42113 12.6896 3.57741C12.5724 3.73369 12.5066 3.94565 12.5066 4.16667C12.5066 4.38768 12.5724 4.59964 12.6896 4.75592C12.8069 4.9122 12.9658 5 13.1316 5H17.5066C17.6724 5 17.8313 4.9122 17.9485 4.75592C18.0657 4.59964 18.1316 4.38768 18.1316 4.16667C18.1316 3.94565 18.0657 3.73369 17.9485 3.57741C17.8313 3.42113 17.6724 3.33333 17.5066 3.33333H13.1316Z" fill="#9ECACD"/>
</svg>
