<svg width="30" height="30" viewBox="0 0 30 30" fill="none" xmlns="http://www.w3.org/2000/svg">
<g clip-path="url(#clip0_204_123)">
<path d="M8.63571 9.64287C9.77236 9.64287 10.8624 9.19134 11.6662 8.38761C12.4699 7.58389 12.9214 6.4938 12.9214 5.35716C12.9214 4.22051 12.4699 3.13043 11.6662 2.3267C10.8624 1.52297 9.77236 1.07144 8.63571 1.07144C7.49907 1.07144 6.40898 1.52297 5.60526 2.3267C4.80153 3.13043 4.35 4.22051 4.35 5.35716C4.35 6.4938 4.80153 7.58389 5.60526 8.38761C6.40898 9.19134 7.49907 9.64287 8.63571 9.64287Z" stroke="black" stroke-width="2.14286" stroke-linecap="round" stroke-linejoin="round"/>
<path d="M12.2486 22.5515L11.4514 28.9286H5.84357L4.77214 20.3572H1.13357V17.1429C1.13386 15.272 1.83334 13.4689 3.09474 12.0872C4.35614 10.7056 6.08836 9.84526 7.95145 9.67511C9.81453 9.50496 11.6739 10.0373 13.1648 11.1675C14.6556 12.2978 15.6701 13.9445 16.0093 15.7843M19.6629 19.4743V18.0815C19.6629 17.5131 19.8886 16.9681 20.2905 16.5662C20.6923 16.1644 21.2374 15.9386 21.8057 15.9386H22.6886C23.2569 15.9386 23.8019 16.1644 24.2038 16.5662C24.6057 16.9681 24.8314 17.5131 24.8314 18.0815V19.4743M15.6321 21.3643C15.6321 20.3207 16.4786 19.4743 17.5221 19.4743H26.9764C28.02 19.4743 28.8664 20.3207 28.8664 21.3664V27.0386C28.8664 27.5399 28.6673 28.0206 28.3129 28.375C27.9584 28.7295 27.4777 28.9286 26.9764 28.9286H17.5221C17.0209 28.9286 16.5402 28.7295 16.1857 28.375C15.8313 28.0206 15.6321 27.5399 15.6321 27.0386V21.3643Z" stroke="black" stroke-width="2.14286" stroke-linecap="round" stroke-linejoin="round"/>
</g>
<defs>
<clipPath id="clip0_204_123">
<rect width="30" height="30" fill="white"/>
</clipPath>
</defs>
</svg>
